<?xml version="1.0" encoding="utf-8" ?><svg xmlns="http://www.w3.org/2000/svg" xmlns:xlink="http://www.w3.org/1999/xlink" width="1024" height="1024" viewBox="0 0 1024 1024"><path fill="#7C3AED" d="M471.315 395.886L523.943 395.68C531.296 395.647 546.869 395.155 553.847 395.862C563.749 413.973 573.515 435.605 582.812 454.273C610.021 510.079 637.664 565.672 665.737 621.048C665.922 621.527 666.374 622.884 666.79 623.108L666.885 623.058C667.234 622.482 667.219 620.225 667.284 619.482C667.706 614.061 667.443 605.019 667.476 599.262L667.572 553.666L667.956 395.912C676.027 395.449 687.827 395.879 696.143 395.91C710 395.961 724.349 395.703 738.14 396.037C738.564 402.281 738.249 412.292 738.253 418.978L738.252 463.415L738.225 520.922C738.219 532.559 738.451 545.053 737.975 556.611C732.835 562.308 725.132 567.943 719.179 574.017C717.944 575.326 717.97 575.328 717.094 576.839C718.358 576.417 719.009 576.172 720.225 575.593C723.962 573.439 736.723 565.667 740.289 565.275C750.273 564.178 763.901 565.012 774.184 564.997C806.651 565.098 839.117 565.013 871.582 564.742C871.947 577.58 871.699 591.252 871.718 604.148C871.728 610.828 872.194 623.738 871.584 629.999C847.256 629.946 823.385 630.657 799.148 630.974L696.77 632.103C660.937 632.648 625.841 633.472 589.865 632.482L579.597 609.334C577.677 605.043 574.529 598.413 573.142 594.059C579.724 591.971 584.678 590.499 590.975 587.738C573.054 587.005 552.546 587.464 534.457 587.436C501.914 587.217 469.37 587.244 436.827 587.516C438.933 588.936 441.15 590.515 443.357 591.741C442.003 595.29 440.392 598.769 438.703 602.172C433.669 612.315 429.225 622.69 424.511 632.975L347.149 632.964C351.255 623.194 361.854 604.981 367.265 594.563C381.549 566.605 396.05 538.757 410.765 511.023L454.481 427.514C459.054 418.952 466.664 403.204 471.315 395.886ZM506.466 467.972C495.089 486.018 482.5 503.834 470.946 521.836C465.554 530.237 458.407 538.264 452.747 546.764C459.517 541.151 467.018 534.769 474.413 530.005C482.317 529.891 490.221 529.841 498.125 529.856L526.976 529.462C542.028 529.233 546.924 527.826 560.292 535.853C544.006 515.556 529.267 494.066 516.197 471.563C512.759 465.71 503.402 441.978 500.884 439.355C501.767 447.364 505.225 459.072 506.466 467.972Z"/><path fill="#CCBBF0" d="M711.524 580.92C712.167 580.186 712.799 579.461 713.547 578.83C714.003 578.446 714.477 578.083 714.923 577.687C715.168 577.471 716.205 576.356 716.663 576.421C716.837 576.446 717.058 576.796 717.094 576.839C716.799 578.57 713.072 580.572 711.524 580.92Z"/><path fill="#F3EAFA" fill-opacity="0.0078431377" d="M500.884 439.355C503.402 441.978 512.759 465.71 516.197 471.563C529.267 494.066 544.006 515.556 560.292 535.853C546.924 527.826 542.028 529.233 526.976 529.462L498.125 529.856C490.221 529.841 482.317 529.891 474.413 530.005C467.018 534.769 459.517 541.151 452.747 546.764C458.407 538.264 465.554 530.237 470.946 521.836C482.5 503.834 495.089 486.018 506.466 467.972C505.225 459.072 501.767 447.364 500.884 439.355Z"/><path fill="#2563EB" d="M212.452 392.752C236.553 392.605 260.655 392.62 284.756 392.798C312.351 392.942 331.912 390.747 358.35 401.646C413.566 424.407 429.646 496.165 386.483 538.463C361.335 563.108 336.372 565.295 303.245 565.319L269.159 565.318C257.787 565.395 242.784 565.298 231.584 564.511C229.433 560.129 226.995 553.83 224.965 549.206C225.18 565.417 225.239 581.629 225.143 597.841C225.138 609.372 225.368 621.584 225.046 633.053C202.11 632.924 176.544 633.326 153.827 632.592C153.266 626.033 153.637 613.134 153.619 606.096L153.575 552.07L153.358 393.021L212.452 392.752ZM225.025 472.626C225.103 480.651 225.655 494.864 225.247 502.439L288.903 502.416C294.997 502.436 301.094 502.481 307.187 502.468C317.126 502.447 326.797 503.309 334.905 496.378C339.92 491.166 342.313 487.435 342.556 480.066C342.917 469.122 334.462 458.593 323.67 456.781C315.298 455.375 303.542 455.981 294.832 455.981L242.117 455.978C236.618 455.975 225.735 456.166 220.567 455.363C216.946 454.801 208.976 447.83 203.882 445.896C210.475 455.747 219.904 464.586 225.025 472.626Z"/><path fill="#F3EAFA" fill-opacity="0.015686275" d="M665.737 621.048C666.27 620.52 666.765 620.027 667.284 619.482C667.219 620.225 667.234 622.482 666.885 623.058L666.79 623.108C666.374 622.884 665.922 621.527 665.737 621.048Z"/><path fill="#F3EAFA" fill-opacity="0.035294119" d="M719.179 574.017L720.225 575.593C719.009 576.172 718.358 576.417 717.094 576.839C717.97 575.328 717.944 575.326 719.179 574.017Z"/></svg>